<svg width="48" height="48" viewBox="0 0 48 48" fill="none" xmlns="http://www.w3.org/2000/svg">
<g clip-path="url(#clip0)">
<rect width="48" height="48" fill="white"/>
<path d="M30.5 39.5C30.5 41.0205 29.3144 42.749 26.61 44.1857C23.9714 45.5875 20.2228 46.5 16 46.5C11.7772 46.5 8.02859 45.5875 5.39002 44.1857C2.6856 42.749 1.5 41.0205 1.5 39.5C1.5 37.9795 2.6856 36.251 5.39002 34.8143C8.02859 33.4125 11.7772 32.5 16 32.5C20.2228 32.5 23.9714 33.4125 26.61 34.8143C29.3144 36.251 30.5 37.9795 30.5 39.5Z" stroke="#152C5B" stroke-width="3"/>
<path d="M27.5 10.25C27.5 11.5009 27.1649 14.0027 26.5101 17.1361C25.8627 20.2343 24.9256 23.8428 23.771 27.2688C22.6108 30.7109 21.2559 33.8932 19.7952 36.1852C19.0645 37.3319 18.3465 38.1928 17.6663 38.7531C16.9892 39.3108 16.4395 39.5 16 39.5C15.5605 39.5 15.0108 39.3108 14.3337 38.7531C13.6535 38.1928 12.9355 37.3319 12.2048 36.1852C10.7441 33.8932 9.38922 30.7109 8.22905 27.2688C7.07435 23.8428 6.1373 20.2343 5.48989 17.1361C4.83514 14.0027 4.5 11.5009 4.5 10.25C4.5 5.73016 9.29692 1.5 16 1.5C22.7031 1.5 27.5 5.73016 27.5 10.25Z" fill="white" stroke="#152C5B" stroke-width="3"/>
<ellipse cx="16" cy="11.5" rx="5" ry="4.5" stroke="#FF498B" stroke-width="3" stroke-linecap="round"/>
</g>
<defs>
<clipPath id="clip0">
<rect width="48" height="48" fill="white"/>
</clipPath>
</defs>
</svg>
