<svg width="48" height="48" viewBox="0 0 48 48" fill="none" xmlns="http://www.w3.org/2000/svg">
<g clip-path="url(#clip0)">
<rect width="48" height="48" fill="white"/>
<path d="M21.5903 8.13875C22.1734 6.26421 24.8266 6.26422 25.4097 8.13875L28.1142 16.8322C28.3743 17.6684 29.1482 18.2381 30.0239 18.2381H38.9546C40.8709 18.2381 41.6902 20.6729 40.1636 21.8313L32.791 27.4259C32.1203 27.9348 31.8402 28.8093 32.0903 29.6132L34.8707 38.5508C35.4487 40.4088 33.3021 41.9144 31.752 40.7381L24.709 35.3936C23.9942 34.8512 23.0058 34.8512 22.291 35.3936L15.248 40.7381C13.6979 41.9143 11.5513 40.4088 12.1293 38.5508L14.9097 29.6132C15.1598 28.8093 14.8797 27.9348 14.209 27.4259L6.83642 21.8313C5.30985 20.6729 6.12908 18.2381 8.0454 18.2381H16.9761C17.8518 18.2381 18.6257 17.6684 18.8858 16.8322L21.5903 8.13875Z" fill="#FFDA58"/>
</g>
<defs>
<clipPath id="clip0">
<rect width="48" height="48" fill="white"/>
</clipPath>
</defs>
</svg>
