<svg width="48" height="48" viewBox="0 0 48 48" fill="none" xmlns="http://www.w3.org/2000/svg">
<g clip-path="url(#clip0)">
<rect width="48" height="48" fill="white"/>
<mask id="path-1-inside-1" fill="white">
<path fill-rule="evenodd" clip-rule="evenodd" d="M17.5059 12C16.6836 12 15.9451 12.5033 15.6444 13.2687L14.1786 17H8C3.58172 17 0 20.5817 0 25V38C0 42.4183 3.58172 46 8 46H40C44.4183 46 48 42.4183 48 38V25C48 20.5817 44.4183 17 40 17H33.8214L32.3556 13.2687C32.0549 12.5033 31.3164 12 30.4941 12H17.5059Z"/>
</mask>
<path d="M15.6444 13.2687L12.8522 12.1717V12.1717L15.6444 13.2687ZM14.1786 17V20H16.2232L16.9708 18.097L14.1786 17ZM33.8214 17L31.0292 18.097L31.7768 20H33.8214V17ZM32.3556 13.2687L35.1478 12.1717L35.1478 12.1717L32.3556 13.2687ZM18.4367 14.3657C18.2864 14.7483 17.9171 15 17.5059 15V9C15.4502 9 13.6039 10.2583 12.8522 12.1717L18.4367 14.3657ZM16.9708 18.097L18.4367 14.3657L12.8522 12.1717L11.3863 15.903L16.9708 18.097ZM8 20H14.1786V14H8V20ZM3 25C3 22.2386 5.23858 20 8 20V14C1.92487 14 -3 18.9249 -3 25H3ZM3 38V25H-3V38H3ZM8 43C5.23858 43 3 40.7614 3 38H-3C-3 44.0751 1.92487 49 8 49V43ZM40 43H8V49H40V43ZM45 38C45 40.7614 42.7614 43 40 43V49C46.0751 49 51 44.0751 51 38H45ZM45 25V38H51V25H45ZM40 20C42.7614 20 45 22.2386 45 25H51C51 18.9249 46.0751 14 40 14V20ZM33.8214 20H40V14H33.8214V20ZM29.5633 14.3657L31.0292 18.097L36.6137 15.903L35.1478 12.1717L29.5633 14.3657ZM30.4941 15C30.0829 15 29.7136 14.7483 29.5633 14.3657L35.1478 12.1717C34.3961 10.2583 32.5498 9 30.4941 9V15ZM17.5059 15H30.4941V9H17.5059V15Z" fill="#152C5B" mask="url(#path-1-inside-1)"/>
<circle cx="24" cy="31" r="6" stroke="#FF498B" stroke-width="3" stroke-linecap="round"/>
</g>
<defs>
<clipPath id="clip0">
<rect width="48" height="48" fill="white"/>
</clipPath>
</defs>
</svg>
